<?xml version="1.0" standalone="no"?>
<!DOCTYPE svg PUBLIC "-//W3C//DTD SVG 20010904//EN"
 "http://www.w3.org/TR/2001/REC-SVG-20010904/DTD/svg10.dtd">
<svg version="1.0" xmlns="http://www.w3.org/2000/svg"
 width="225.000000pt" height="225.000000pt" viewBox="0 0 225.000000 225.000000"
 preserveAspectRatio="xMidYMid meet">
<metadata>
Created by potrace 1.16, written by Peter Selinger 2001-2019
</metadata>
<g transform="translate(0.000000,225.000000) scale(0.100000,-0.100000)"
fill="#000000" stroke="none">
<path d="M0 1125 l0 -1125 1125 0 1125 0 0 1125 0 1125 -1125 0 -1125 0 0
-1125z m1650 880 c73 -38 102 -148 60 -223 -13 -23 -40 -49 -62 -62 -44 -25
-51 -25 -243 5 -112 18 -496 32 -568 21 l-47 -7 0 -130 0 -129 178 0 c201 0
264 -11 351 -63 149 -89 232 -269 203 -439 -22 -127 -100 -246 -198 -304 -24
-14 -44 -28 -44 -31 0 -7 199 -314 218 -335 21 -24 58 -23 76 3 21 31 6 60
-40 76 -34 12 -73 46 -74 65 0 13 71 29 103 23 98 -22 145 -130 92 -212 -41
-62 -134 -82 -196 -40 -42 28 -301 422 -297 452 2 13 21 29 55 45 112 54 183
138 210 249 37 153 -47 321 -194 388 -52 24 -73 27 -206 31 -81 2 -168 1 -192
-3 l-45 -6 0 -313 0 -314 23 -6 c12 -3 32 -6 45 -6 20 0 22 -5 22 -49 l0 -48
-52 9 c-50 8 -173 3 -204 -9 -11 -4 -14 6 -14 46 0 46 2 51 23 51 12 0 32 3
45 6 l22 6 0 309 0 309 -24 0 c-13 0 -80 -7 -148 -16 -154 -20 -206 -16 -253
21 -54 40 -75 81 -75 143 0 61 17 99 60 136 91 76 228 48 279 -57 30 -62 28
-77 -10 -77 -23 0 -41 9 -65 35 -47 50 -78 60 -123 38 -63 -31 -67 -103 -8
-146 27 -21 28 -21 175 -3 81 10 157 20 170 23 21 5 22 9 22 134 l0 129 -69
-6 c-69 -7 -70 -6 -102 26 -41 40 -37 42 96 64 257 43 670 34 932 -20 63 -13
108 71 63 116 -31 31 -84 27 -111 -10 -24 -31 -82 -51 -100 -33 -12 12 12 76
39 107 47 53 134 66 202 31z m-406 -350 c189 -33 353 -157 434 -325 48 -102
62 -163 62 -278 0 -158 -52 -294 -152 -396 -65 -67 -83 -66 -83 3 0 29 8 47
33 75 127 145 148 377 51 568 -82 162 -229 252 -444 272 -38 4 -80 13 -92 21
-28 19 -40 55 -22 66 21 13 124 10 213 -6z m-174 -818 l0 -413 43 -10 c40 -9
42 -11 45 -49 l3 -40 -141 0 -141 0 3 40 c3 38 5 40 45 49 l42 10 3 387 3 387
24 26 c14 14 35 26 48 26 l23 0 0 -413z"/>
</g>
</svg>
